<svg xmlns="http://www.w3.org/2000/svg" width="144" height="144" viewBox="0 0 144 144">
    <g fill="none" fill-rule="nonzero">
        <path fill="#060B0D" d="M88.877 81.53l11.425 5.037 6.362 2.802c1.477.833 2.496 2.305 2.742 3.919a5.5 5.5 0 0 1-.158 2.394l-.281.744-1.143 2.926-4.552 11.704-1.142 2.926-.563 1.472-.281.727-.14.373-.07.177c-1.6-1.756-.44-.479-.792-.869l6.275.656-6.17.904c-.421-.39.704.887-.878-.868.035-.213.017-.071.017-.125l.036-.283.052-.39.106-.78.193-1.561.387-3.121 1.582-12.484.386-3.121s.106.656.264.922c.158.266.387.496.65.674.07.053.14.088.211.124l.106.053c.035.018-.422-.053-.422-.053l-.774-.124-1.529-.266-3.076-.515-12.303-2.057c-3.375-.567-5.66-3.777-5.097-7.2.562-3.422 3.743-5.71 7.136-5.142.492.071 1.002.23 1.441.426zM68.844 86.684l-4.758 10.937-1.194 2.735-.597 1.367-.07.18-.053.144-.088.234a6.669 6.669 0 0 1-1.738 2.428 6.039 6.039 0 0 1-3.511 1.44 5.862 5.862 0 0 1-1.862-.199l-.228-.072-.105-.036-.106-.036-.175-.072-.334-.144-2.669-1.223-10.675-4.875-5.338-2.428-.667-.306-.123-.054c.334-.198-.825.432.773-.432 0-.036-.07.18-.07.18l-.141.342-.597 1.367-1.194 2.734.456-2.95.229-1.475.052-.378.036-.18c1.615-.917.456-.27.807-.467l.158.018.72.108 5.777.935 11.553 1.853 2.88.468.368.054.176.036c-.035-.018-1.686.27-1.808.413-.053.072-.106.162-.158.234-.036.072 0-.162 0-.162l.228-1.475.456-2.95 1.809-11.836c.527-3.472 3.705-5.829 7.093-5.289 3.39.54 5.69 3.796 5.163 7.267a6.984 6.984 0 0 1-.475 1.565z"/>
        <path fill="#FAA91A" stroke="#060B0D" stroke-linecap="round" stroke-linejoin="round" stroke-width="1.592" d="M101.564 57.417l5.594-5.916c1.66 0 3.007-1.36 3.007-3.038a3.17 3.17 0 0 0-.315-1.36h.035c-4.912-12.132-17.08-19.956-34.91-19.956H60.376c-4.004 0-7.255 3.285-7.255 7.33v8.052h.052v.106c1.12-1.978 3.234-3.32 5.647-3.32 2.64 0 4.93 1.59 5.944 3.885a6.46 6.46 0 0 1 7.832-2.242c2.989 1.253 4.562 4.503 3.828 7.594 3.007-.724 6.206.812 7.482 3.779.018.053.053.124.07.194 1.189 3.02.018 6.41-2.64 8.053 2.71 1.678 3.846 5.14 2.588 8.142-1.241 3.02-4.458 4.61-7.517 3.867.716 3.056-.805 6.27-3.742 7.56-.052.017-.122.052-.192.07-2.85 1.148-6.014.123-7.727-2.296a6.518 6.518 0 0 1-5.944 3.868c-2.412 0-4.51-1.325-5.646-3.285v.088l-.07-.018v8.054c0 4.044 3.251 7.329 7.255 7.329h14.195c14.388 0 25.139-5.228 31.415-13.599h-.018c.315-.424.507-.954.507-1.536 0-.407-.087-.795-.262-1.13a2.511 2.511 0 0 0-2.255-1.396l-.647-1.095-1.713-17.784z"/>
        <path fill="#EC1C24" stroke="#060B0D" stroke-width="1.592" d="M80.826 55.544h25.17c2.975 0 5.428 2.513 5.428 5.6v10.592c0 3.088-2.435 5.6-5.427 5.6H72.25l1.792-1.705 4.905-3.41 3.01-3.95-1.584-5.08-1.565-1.867 1.565-2.585"/>
        <path fill="#FDE600" stroke="#060B0D" stroke-width="1.592" d="M105.915 51.863H80.256v3.731h4.166c.017.018.035.018.035.018 1.353 0 2.46 1.06 2.548 2.405v10.75c0 2.705 2.18 4.916 4.886 4.916 2.688 0 4.885-2.193 4.885-4.916V61.13a2.445 2.445 0 0 1 2.443-2.458 2.445 2.445 0 0 1 2.443 2.458v.3c0 2.706 2.179 4.916 4.885 4.916 2.69 0 4.886-2.193 4.886-4.916v-4.067c-.035-3.023-2.496-5.499-5.518-5.499z"/>
        <g fill="#060B0D" stroke="#060B0D" stroke-linecap="round" stroke-linejoin="round" stroke-width="1.592">
            <path d="M60.454 43.238a6.661 6.661 0 0 1 2.83-2.289c-1.167-1.02-2.67-1.645-4.333-1.645a6.36 6.36 0 0 0-2.264.411 6.668 6.668 0 0 1 3.767 3.523zM60.454 77.605a6.601 6.601 0 0 1-3.75 3.505 6.36 6.36 0 0 0 2.265.412 6.55 6.55 0 0 0 4.315-1.628 6.532 6.532 0 0 1-2.83-2.289zM80.954 60.71c2.688-1.598 3.873-4.895 2.67-7.832-.017-.051-.052-.12-.07-.189-1.291-2.885-4.51-4.396-7.57-3.675.743-3.005-.85-6.165-3.874-7.384-1.592-.653-3.29-.636-4.81-.103.088.034.194.068.282.103 3.025 1.219 4.617 4.379 3.874 7.384 3.042-.704 6.279.79 7.57 3.675.018.052.053.12.07.19 1.203 2.936.018 6.233-2.67 7.83 2.742 1.632 3.891 4.998 2.618 7.918-1.256 2.936-4.51 4.482-7.606 3.76.725 2.972-.813 6.097-3.785 7.35-.053.018-.124.052-.194.07-.071.017-.124.051-.195.068a6.828 6.828 0 0 0 4.705-.068c.053-.018.124-.052.194-.07 2.972-1.253 4.528-4.378 3.785-7.35 3.096.722 6.35-.824 7.606-3.76 1.291-2.92.141-6.286-2.6-7.917z"/>
            <path d="M60.454 77.605h4.51l-1.68 2.29M60.454 43.238h4.528l-1.68-2.271"/>
        </g>
        <ellipse cx="2.374" cy="2.424" fill="#FFF" stroke="#060B0D" stroke-width="1.592" rx="2.345" ry="2.307" transform="translate(97.041 38.842)"/>
        <ellipse cx="2.648" cy="2.424" fill="#FFF" stroke="#060B0D" stroke-width="1.592" rx="2.422" ry="2.307" transform="translate(83.014 39.653)"/>
        <ellipse cx="2.573" cy="2.479" fill="#FFF" stroke="#060B0D" stroke-width="1.592" rx="2.422" ry="2.373" transform="translate(78.205 30.733)"/>
        <ellipse cx="2.374" cy="2.424" fill="#FFF" stroke="#060B0D" stroke-width="1.592" rx="2.345" ry="2.307" transform="translate(64.178 32.76)"/>
        <g fill="#060B0D">
            <path d="M51.102 69.26h-5.044l-.352-8.3-.158-3.309a48.497 48.497 0 0 1-.193 1.825c-.07.572-.158 1.145-.246 1.681l-1.512 8.103h-3.936l-1.3-8.12a106.95 106.95 0 0 1-.317-2.433c-.018-.18-.053-.52-.105-1.056l-.123 3.363-.422 8.246h-5.132l2.092-18.192h6.01l1.002 6.118c.087.5.158 1.055.228 1.646.07.59.123 1.234.176 1.914a31.34 31.34 0 0 1 .422-3.095l1.23-6.583h5.957l1.723 18.192zM64.985 69.26h-5.22l-2.39-6.475c-.017-.107-.07-.25-.123-.43a13.644 13.644 0 0 0-.21-.643l.035 1.198v6.35h-4.798V51.068h4.938c2.18 0 3.796.43 4.886 1.306 1.37 1.11 2.056 2.701 2.056 4.758 0 2.2-.914 3.721-2.759 4.562l3.585 7.566zm-7.873-9.766h.316c.563 0 1.02-.215 1.389-.644.369-.43.562-.984.562-1.646 0-1.36-.703-2.04-2.091-2.04h-.176v4.33z"/>
        </g>
    </g>
</svg>
